<?xml version="1.0" standalone="no"?>
<!DOCTYPE svg PUBLIC "-//W3C//DTD SVG 20010904//EN"
 "http://www.w3.org/TR/2001/REC-SVG-20010904/DTD/svg10.dtd">
<svg version="1.0" xmlns="http://www.w3.org/2000/svg"
 width="936.000000pt" height="936.000000pt" viewBox="0 0 936.000000 936.000000"
 preserveAspectRatio="xMidYMid meet">

<g transform="translate(0.000000,936.000000) scale(0.100000,-0.100000)"
fill="#000000" stroke="none">
<path d="M4387 9230 c-39 -137 -49 -239 -44 -415 5 -166 38 -395 57 -395 15 0
50 225 56 355 8 159 -25 515 -46 515 -4 0 -14 -27 -23 -60z"/>
<path d="M3037 8617 c4 -7 30 -46 58 -87 29 -41 85 -131 125 -200 101 -173
270 -416 270 -389 0 3 -9 57 -20 120 -52 291 -135 430 -310 519 -68 34 -133
54 -123 37z"/>
<path d="M5690 8441 c-106 -50 -206 -137 -266 -232 -67 -105 -114 -274 -114
-408 l0 -66 52 80 c79 123 390 646 386 650 -1 2 -28 -9 -58 -24z"/>
<path d="M6065 6880 c-206 -26 -504 -92 -680 -151 -191 -65 -403 -154 -467
-196 -124 -81 -177 -179 -178 -324 0 -99 -10 -59 184 -759 284 -1027 437
-1534 508 -1694 147 -326 321 -479 574 -501 198 -17 343 -77 453 -185 53 -53
79 -90 123 -177 58 -114 76 -168 303 -883 62 -195 143 -443 181 -550 67 -192
68 -196 69 -300 0 -90 -3 -111 -22 -146 -41 -78 -142 -150 -262 -190 -76 -25
-131 -70 -163 -133 -24 -47 -28 -66 -28 -142 0 -157 54 -276 147 -322 78 -39
138 -49 291 -48 184 0 315 22 494 82 280 94 491 228 561 356 89 164 18 406
-141 484 -67 33 -212 33 -332 0 -195 -54 -299 -15 -365 134 -12 28 -57 160
-100 295 -42 135 -167 515 -278 845 l-201 600 0 95 c-1 87 1 99 29 149 18 32
56 77 95 110 180 155 249 249 301 410 58 182 72 362 45 571 -62 466 -122 710
-346 1415 -149 467 -186 592 -235 776 -24 93 -54 187 -65 210 -33 63 -97 121
-165 148 -68 27 -210 36 -330 21z m198 -171 c-10 -17 -46 -66 -81 -109 -133
-167 -318 -266 -573 -306 -85 -14 -156 -16 -385 -12 -154 3 -286 8 -293 12
-16 10 5 25 169 116 288 160 607 257 1016 309 82 10 153 19 157 20 5 1 0 -13
-10 -30z m272 -489 c154 -383 222 -627 258 -937 l4 -33 -221 0 c-371 0 -616
25 -853 85 -160 41 -237 73 -450 182 -187 97 -212 120 -243 223 -42 140 -39
220 9 268 36 35 79 48 211 62 151 16 316 46 466 85 105 27 595 177 704 215 14
5 31 8 39 7 8 -1 41 -70 76 -157z m-1061 -975 c246 -69 467 -107 831 -145 110
-11 225 -25 255 -31 376 -72 513 -303 514 -869 1 -215 -10 -275 -74 -416 -122
-269 -407 -458 -690 -457 -124 0 -183 14 -306 73 -232 112 -412 355 -537 725
-50 147 -75 242 -181 675 -62 251 -121 464 -153 545 -3 10 30 2 108 -26 62
-22 167 -55 233 -74z m2412 -4330 c82 -41 129 -134 104 -209 -31 -94 -257
-229 -500 -299 -151 -44 -266 -59 -397 -51 -140 8 -181 24 -208 81 -26 54 -24
138 3 190 44 85 126 123 264 123 121 0 162 11 313 86 170 84 226 102 306 103
50 1 76 -5 115 -24z"/>
<path d="M2883 6835 c-114 -31 -192 -93 -243 -195 -16 -31 -85 -254 -155 -495
-70 -242 -214 -740 -320 -1107 -107 -367 -202 -707 -211 -755 -20 -104 -23
-291 -5 -382 39 -199 129 -352 311 -522 172 -161 211 -231 212 -379 1 -99 1
-98 -178 -800 -233 -909 -244 -949 -280 -1026 -42 -89 -102 -147 -175 -168
-72 -22 -117 -20 -238 9 -144 35 -172 28 -328 -78 -43 -29 -99 -62 -125 -73
l-48 -19 0 -115 c0 -131 0 -130 89 -223 74 -78 162 -136 356 -236 169 -88 275
-153 314 -195 l24 -26 343 0 342 0 64 118 c114 207 141 309 104 380 -33 62
-133 136 -321 238 -142 76 -197 129 -220 208 -12 41 -15 74 -10 110 8 63 71
316 271 1091 203 785 199 771 240 833 50 77 101 97 270 111 202 16 333 66 467
176 149 123 268 312 397 630 128 315 217 604 386 1250 64 241 140 525 171 630
82 280 86 300 80 382 -7 98 -51 180 -126 239 -104 82 -563 260 -856 333 -151
38 -377 71 -475 70 -41 0 -99 -7 -127 -14z m614 -224 c131 -25 207 -52 336
-118 127 -65 236 -144 326 -236 57 -59 63 -67 45 -74 -33 -14 -353 -9 -429 6
-96 19 -261 71 -378 121 -86 35 -474 224 -487 237 -13 12 82 45 200 68 99 20
273 18 387 -4z m-630 -270 c27 -6 131 -43 230 -84 370 -154 750 -264 1086
-318 43 -6 80 -16 83 -21 3 -5 -19 -47 -49 -93 -129 -194 -275 -324 -472 -420
-201 -99 -391 -139 -885 -185 -179 -17 -342 -34 -362 -37 l-36 -5 -8 48 c-10
70 3 246 26 348 11 49 55 195 99 325 43 130 84 261 91 291 21 92 50 133 106
150 39 11 35 11 91 1z m1177 -1068 c-21 -125 -90 -448 -119 -564 -102 -405
-229 -723 -410 -1028 -132 -222 -267 -324 -489 -367 -75 -15 -102 -16 -204 -6
-148 15 -217 32 -318 82 -325 159 -496 618 -384 1029 80 289 278 519 510 592
36 11 162 33 280 49 455 60 842 144 1085 234 56 21 57 20 49 -21z m-2318
-4455 c154 -93 295 -139 502 -163 140 -16 192 -36 245 -90 45 -46 61 -92 55
-162 -6 -64 -29 -100 -84 -128 -34 -17 -59 -20 -189 -20 -136 0 -162 3 -277
33 -260 67 -500 187 -559 281 -48 75 -34 165 38 233 44 42 83 58 144 58 47 0
65 -6 125 -42z"/>
</g>
</svg>
