<?xml version="1.0" standalone="no"?>
<!DOCTYPE svg PUBLIC "-//W3C//DTD SVG 20010904//EN"
 "http://www.w3.org/TR/2001/REC-SVG-20010904/DTD/svg10.dtd">
<svg version="1.0" xmlns="http://www.w3.org/2000/svg"
 width="936.000000pt" height="936.000000pt" viewBox="0 0 936.000000 936.000000"
 preserveAspectRatio="xMidYMid meet">

<g transform="translate(0.000000,936.000000) scale(0.100000,-0.100000)"
fill="#000000" stroke="none">
<path d="M5816 9266 c-192 -70 -357 -257 -436 -495 -60 -182 -83 -586 -46
-826 45 -291 137 -551 293 -825 62 -110 193 -302 268 -395 l31 -37 384 207
c441 238 741 408 885 502 79 52 139 105 282 249 189 192 265 289 303 391 135
359 -7 694 -330 778 -99 26 -260 22 -380 -10 -91 -24 -247 -94 -377 -169 l-61
-36 -20 32 c-11 18 -57 101 -102 183 -150 273 -231 368 -370 434 -65 31 -86
36 -165 38 -76 3 -101 0 -159 -21z m260 -160 c69 -32 148 -114 208 -215 48
-83 159 -317 190 -401 35 -98 78 -139 130 -126 13 3 73 43 132 88 197 149 300
198 462 219 215 27 404 -64 459 -224 44 -127 0 -314 -114 -492 -77 -119 -317
-351 -470 -453 -93 -63 -319 -194 -503 -292 -395 -210 -622 -330 -626 -330
-13 0 -152 229 -217 358 -173 339 -244 607 -254 949 -12 410 51 637 226 818
90 92 156 124 261 124 48 1 78 -5 116 -23z"/>
<path d="M3070 7699 c-856 -60 -1593 -430 -2128 -1069 -147 -176 -268 -363
-377 -585 -219 -444 -315 -854 -315 -1345 0 -510 141 -1042 389 -1475 302
-524 721 -927 1241 -1189 371 -188 654 -262 1230 -326 151 -16 293 -32 316
-35 38 -5 47 -13 142 -133 546 -689 1193 -1077 1982 -1189 98 -14 192 -17 430
-17 335 0 452 12 722 74 432 100 853 304 1208 586 119 95 392 370 480 484 349
453 554 946 626 1505 23 181 23 534 0 720 -73 584 -296 1127 -640 1559 -440
553 -1042 921 -1752 1069 -178 38 -351 57 -588 66 -210 8 -215 9 -277 39 -77
36 -114 70 -251 227 -441 504 -953 825 -1539 965 -169 40 -297 58 -492 70
-180 11 -239 11 -407 -1z m345 -159 c690 -45 1331 -328 1801 -795 144 -143
317 -355 302 -370 -2 -2 -93 -25 -201 -50 l-198 -47 -62 67 c-33 37 -69 77
-78 89 -36 46 -265 244 -362 314 -242 173 -495 291 -775 361 -219 55 -357 72
-602 72 -478 1 -901 -125 -1284 -382 -461 -308 -777 -718 -946 -1227 -85 -254
-120 -476 -120 -754 0 -389 79 -727 250 -1063 365 -721 1066 -1200 1885 -1286
136 -14 455 -6 580 15 313 53 629 173 900 340 591 366 993 1001 1086 1716 19
151 15 440 -10 605 -23 156 -64 331 -111 478 -17 55 -30 100 -28 101 2 2 86
15 188 30 102 15 192 29 201 32 28 8 119 -206 177 -416 83 -298 104 -729 52
-1072 -124 -824 -557 -1501 -1260 -1970 -145 -97 -413 -234 -574 -293 -392
-144 -852 -203 -1262 -160 -896 94 -1660 570 -2129 1324 -220 354 -363 761
-416 1186 -17 130 -16 512 0 640 43 344 134 647 282 945 305 613 814 1088
1462 1364 267 114 602 189 932 209 112 7 168 7 320 -3z m195 -539 c356 -63
689 -208 965 -420 84 -64 227 -203 297 -289 51 -62 57 -73 41 -79 -64 -23
-291 -131 -367 -174 -240 -136 -436 -280 -629 -460 -515 -484 -835 -1115 -933
-1844 -13 -93 -18 -200 -18 -380 0 -256 10 -394 45 -584 10 -58 16 -107 13
-110 -14 -15 -228 -12 -307 4 -331 66 -684 273 -997 585 -399 396 -613 829
-669 1352 -73 666 189 1362 687 1829 340 319 795 531 1262 588 126 16 478 5
610 -18z m2710 -772 c384 -41 826 -192 1173 -401 333 -201 675 -528 897 -858
247 -368 399 -769 467 -1225 27 -184 24 -601 -5 -790 -147 -946 -712 -1734
-1545 -2156 -331 -168 -668 -270 -1017 -310 -248 -28 -599 -11 -860 42 -514
104 -1038 377 -1409 733 -158 152 -374 433 -348 454 45 37 238 76 342 70 128
-8 196 -51 346 -214 44 -47 226 -178 364 -261 282 -170 562 -274 880 -329 127
-22 415 -29 560 -15 220 22 495 88 699 168 133 52 378 173 479 236 428 271
732 632 920 1092 232 564 261 1200 82 1755 -199 617 -638 1140 -1205 1438
-584 307 -1315 365 -1955 155 -892 -292 -1556 -1106 -1675 -2053 -39 -309 -18
-604 65 -933 19 -77 35 -145 35 -152 0 -29 -99 -50 -239 -50 l-133 0 -18 46
c-26 65 -67 255 -85 392 -20 153 -20 464 0 627 105 860 565 1610 1275 2075
576 377 1231 536 1910 464z m188 -489 c512 -110 1050 -490 1394 -985 258 -371
389 -766 405 -1220 17 -477 -108 -927 -371 -1343 -192 -303 -484 -579 -813
-771 -242 -140 -576 -247 -883 -282 -153 -17 -483 -7 -635 20 -473 85 -869
277 -1183 575 -40 39 -87 87 -104 108 l-30 38 59 26 c249 109 517 264 723 418
167 124 420 374 544 536 324 424 542 949 610 1472 56 427 5 929 -138 1346 -18
53 -22 74 -13 77 62 21 311 12 435 -15z m-1220 -112 c212 -538 212 -1090 0
-1623 -235 -591 -710 -1049 -1293 -1248 -199 -67 -176 -70 -218 21 -40 87 -77
213 -104 347 -26 129 -25 527 1 670 59 327 159 602 311 857 274 460 674 792
1160 964 66 24 122 43 125 43 3 1 11 -14 18 -31z"/>
</g>
</svg>
