<?xml version="1.0" encoding="UTF-8"?>
<svg version="1.1" xmlns="http://www.w3.org/2000/svg" width="936" height="936">
<path d="M0 0 C308.88 0 617.76 0 936 0 C936 308.88 936 617.76 936 936 C627.12 936 318.24 936 0 936 C0 627.12 0 318.24 0 0 Z " fill="#FEFEFE" transform="translate(0,0)"/>
<path d="M0 0 C149.82 0 299.64 0 454 0 C454 308.88 454 617.76 454 936 C300.55 936 147.1 936 -11 936 C-8.75020828 934.87510414 -6.48922797 933.77022373 -4.1953125 932.73828125 C3.12290777 929.33987107 8.78760461 926.3601124 11.9609375 918.671875 C12.60047914 916.84617492 13.22420273 915.01489181 13.8359375 913.1796875 C22.34915096 889.92547354 37.13249968 867.98769746 50 847 C50.47808105 846.2172168 50.95616211 845.43443359 51.44873047 844.62792969 C58.68393223 832.82718533 66.38858972 821.33019209 74.0625 809.8125 C74.56965546 809.05117767 75.07681091 808.28985535 75.59933472 807.50546265 C84.53381952 794.1049093 93.56707139 780.76981131 102.875 767.625 C103.36492432 766.93204834 103.85484863 766.23909668 104.35961914 765.52514648 C109.64338208 758.0673396 115.00041198 750.66273311 120.36328125 743.26171875 C121.98509064 741.02060267 123.60265132 738.77648685 125.21875 736.53125 C130.8307836 728.73761075 136.47992977 720.97400794 142.1875 713.25 C146.59045439 707.29094283 150.95621185 701.30985819 155.24731445 695.26977539 C158.59635598 690.55608278 161.98327615 685.87054997 165.375 681.1875 C170.08385145 674.67901717 174.75368505 668.14476273 179.37333679 661.57264709 C181.83503879 658.07111879 184.30076438 654.57273224 186.78295898 651.08569336 C194.03661768 640.8835103 201.07411279 630.55197966 208 620.125 C208.52358093 619.33774536 209.04716187 618.55049072 209.58660889 617.73937988 C239.4676896 572.79198806 266.45331286 526.21042547 284.80224609 475.31152344 C285.90453964 472.26392669 287.03591544 469.22900418 288.17578125 466.1953125 C294.10297679 450.13954416 298.09633935 433.63577611 302 417 C302.3405542 415.56092285 302.3405542 415.56092285 302.68798828 414.09277344 C303.86840271 409.07577083 304.96681956 404.04941615 306 399 C306.26296875 397.74574219 306.5259375 396.49148438 306.796875 395.19921875 C313.60994791 361.04815515 314.84685283 324.0544064 309.41015625 289.64648438 C309.01168737 287.07541134 308.66916587 284.50310581 308.34375 281.921875 C301.29143676 227.63621153 277.97090644 173.8334462 244 131 C243.30648437 130.10667969 242.61296875 129.21335938 241.8984375 128.29296875 C239.96631166 125.83209243 237.99183985 123.41275695 236 121 C235.21367188 120.02804688 234.42734375 119.05609375 233.6171875 118.0546875 C227.14566455 110.19156708 220.11587769 102.90257479 212.9375 95.6875 C212.02790527 94.7687207 211.11831055 93.84994141 210.18115234 92.90332031 C204.09334311 86.84286956 197.71807809 81.34639636 191 76 C189.7915132 74.99941506 188.58538145 73.99597093 187.3828125 72.98828125 C134.35014552 29.1500827 67.96226778 6.37579353 0 1 C0 0.67 0 0.34 0 0 Z " fill="#FEFEFE" transform="translate(482,0)"/>
<path d="M0 0 C148.83 0 297.66 0 451 0 C451 0.33 451 0.66 451 1 C449.10507812 1.14695313 449.10507812 1.14695313 447.171875 1.296875 C389.33481209 6.01860443 333.4848919 22.33163574 285 55 C283.98897217 55.67748291 283.98897217 55.67748291 282.95751953 56.36865234 C256.37215796 74.315771 230.63549132 96.55891143 211 122 C210.11451102 123.06569731 209.22490264 124.12798021 208.33203125 125.1875 C154.47293394 189.65918275 129.22476637 278.56618386 136.6875 361.875 C137.05162632 365.26199664 137.5081837 368.62931661 138 372 C138.16129395 373.10939941 138.32258789 374.21879883 138.48876953 375.36181641 C140.97362101 391.99633151 144.19910496 408.3894823 148.21337891 424.72045898 C148.78155941 427.08928851 149.32208158 429.46481067 149.84521484 431.84399414 C152.3328462 443.10020226 155.7342116 453.9231971 159.5 464.8125 C159.80679688 465.70529663 160.11359375 466.59809326 160.4296875 467.51794434 C165.89221629 483.36731926 171.94567395 498.78195342 179 514 C179.81138428 515.76077881 179.81138428 515.76077881 180.63916016 517.55712891 C195.55219641 549.78924557 213.44127632 580.3765054 233 610 C233.53061035 610.80614746 234.0612207 611.61229492 234.60791016 612.44287109 C245.17859705 628.48336252 256.12499995 644.24785883 267.32226562 659.85644531 C269.49316351 662.88334765 271.65000715 665.91923998 273.7890625 668.96875 C283.29600897 682.52066602 293.1042446 695.83929695 303.0625 709.0625 C308.93774239 716.86657715 314.65497412 724.78044898 320.35449219 732.71337891 C321.99501669 734.99307513 323.64101689 737.26870498 325.2890625 739.54296875 C332.05504753 748.8812381 338.7646193 758.25625577 345.38378906 767.69921875 C347.05973172 770.08503198 348.7447176 772.46430562 350.4296875 774.84375 C374.59549517 809.12249258 397.42366976 844.45167895 418 881 C418.60714844 882.07443359 419.21429688 883.14886719 419.83984375 884.25585938 C425.71762433 894.70314033 431.20470474 904.73730225 434.921875 916.15234375 C438.09058336 924.52186691 443.57161423 928.89366923 451.3515625 932.90625 C453.91403126 933.96449668 456.26855066 934.56612357 459 935 C459 935.33 459 935.66 459 936 C307.53 936 156.06 936 0 936 C0 627.12 0 318.24 0 0 Z " fill="#FEFEFE" transform="translate(0,0)"/>
<path d="M0 0 C2.365678 0.7791914 4.74039962 1.52711323 7.11572266 2.27636719 C19.07398635 6.09900972 30.65425967 10.52752597 42.09619141 15.69042969 C43.45381592 16.30144531 43.45381592 16.30144531 44.83886719 16.92480469 C70.72220826 28.68231348 94.12849308 43.688337 116.09619141 61.69042969 C116.65387207 62.14369629 117.21155273 62.59696289 117.78613281 63.06396484 C126.6511927 70.32412131 134.85263464 78.24161178 142.97119141 86.31542969 C143.45756073 86.79653198 143.94393005 87.27763428 144.44503784 87.77331543 C151.12565454 94.39787555 157.24870427 101.31844997 163.09619141 108.69042969 C164.14442713 109.96856326 165.1949016 111.24486717 166.24853516 112.51855469 C176.81881118 125.44742629 185.72726005 139.25854637 194.09619141 153.69042969 C194.69149658 154.7084668 194.69149658 154.7084668 195.29882812 155.74707031 C216.99003421 193.02049544 231.74943328 235.72583707 235.79614258 278.80249023 C236.02615107 281.01629854 236.30024168 283.22556492 236.59350586 285.43188477 C238.03408681 296.27599425 238.4557557 306.9446039 238.40869141 317.87792969 C238.40720093 318.74116852 238.40571045 319.60440735 238.4041748 320.49380493 C238.33213345 343.8962236 236.08121736 366.80297477 231.09619141 389.69042969 C230.63637187 391.87398467 230.17674747 394.05758076 229.71728516 396.24121094 C226.73155424 410.23236978 223.36135716 424.03328278 219.09619141 437.69042969 C218.77811523 438.71040039 218.46003906 439.73037109 218.13232422 440.78125 C193.54386961 518.74976845 149.58769906 587.22461222 101.95507812 652.95507812 C98.25359479 658.06828484 94.60003165 663.21297268 90.97119141 668.37792969 C86.81502796 674.28947454 82.59296712 680.14600102 78.30615234 685.96337891 C73.07114625 693.06962916 67.91462921 700.2321594 62.75341797 707.39208984 C60.57612756 710.411685 58.39647399 713.42956942 56.21655273 716.44726562 C55.13547055 717.943873 54.0545789 719.44061803 52.97387695 720.9375 C50.25575439 724.70224892 47.53548279 728.46541126 44.81103516 732.22558594 C39.49632247 739.56434867 34.20218364 746.91668536 28.97119141 754.31542969 C28.5412085 754.92265869 28.11122559 755.5298877 27.66821289 756.15551758 C18.63504375 768.96978193 9.84983756 781.95506283 1.15869141 795.00292969 C0.67963348 795.72198486 0.20057556 796.44104004 -0.29299927 797.18188477 C-17.40710013 822.88913576 -33.51609408 849.17157848 -48.50830078 876.17822266 C-49.39288903 877.77066721 -50.28112234 879.36109689 -51.17431641 880.94873047 C-54.68203497 887.18710443 -57.91736689 893.25505873 -60.02880859 900.12792969 C-62.94171863 909.52237979 -68.28483584 915.07927926 -76.90380859 919.69042969 C-84.94801106 923.55222979 -94.02567637 924.07681924 -102.59130859 921.56542969 C-110.78507005 918.37401898 -117.68818891 913.51771207 -121.90380859 905.69042969 C-123.03140249 902.74189937 -124.07204989 899.77087633 -125.10742188 896.7890625 C-132.17090678 877.38732763 -144.17534701 859.26088953 -154.90380859 841.69042969 C-155.34217041 840.97098175 -155.78053223 840.25153381 -156.23217773 839.51028442 C-164.44764729 826.05072875 -172.99356988 812.84641401 -181.77880859 799.75292969 C-183.0186349 797.90017323 -184.25829801 796.04730755 -185.49780273 794.19433594 C-188.96008988 789.02206938 -192.43022408 783.85511413 -195.90380859 778.69042969 C-196.34283508 778.03725769 -196.78186157 777.38408569 -197.23419189 776.71112061 C-204.8924488 765.32081065 -212.71208043 754.072845 -220.79443359 742.97949219 C-223.85751416 738.7701405 -226.85305934 734.51557209 -229.84130859 730.25292969 C-235.80209496 721.76917378 -241.94888128 713.42793673 -248.12158203 705.09765625 C-251.6399885 700.34539765 -255.14303673 695.58180815 -258.64892578 690.8203125 C-261.5855639 686.83311631 -264.52594247 682.84878971 -267.47412109 678.87011719 C-274.59446873 669.25208664 -281.58804935 659.55824142 -288.45361328 649.75683594 C-290.35971044 647.04080794 -292.27780159 644.33336212 -294.19580078 641.62573242 C-296.20978197 638.7797868 -298.21699267 635.92910519 -300.22314453 633.07763672 C-301.40205041 631.40312456 -302.58252508 629.7297163 -303.76416016 628.05712891 C-312.95058089 615.04188857 -321.80429301 601.87534754 -330.23779297 588.359375 C-331.86402162 585.75416814 -333.50040586 583.15557446 -335.13818359 580.55761719 C-359.21556973 542.20549244 -380.39186836 502.51075151 -395.46630859 459.75292969 C-395.82962784 458.72312485 -395.82962784 458.72312485 -396.20028687 457.67251587 C-401.09406832 443.71170507 -405.33926613 429.54956724 -408.90380859 415.19042969 C-409.15235596 414.19052002 -409.40090332 413.19061035 -409.65698242 412.16040039 C-413.96083609 394.5377718 -417.48928122 376.67330995 -419.90380859 358.69042969 C-420.00822266 357.94100098 -420.11263672 357.19157227 -420.22021484 356.41943359 C-428.06066196 297.90141297 -416.78061069 236.23668731 -392.90380859 182.69042969 C-392.53674805 181.85463379 -392.1696875 181.01883789 -391.79150391 180.15771484 C-380.31950558 154.18565642 -364.6561999 130.14735567 -346.38574219 108.46484375 C-345.06203292 106.87988182 -343.77153737 105.26731658 -342.48583984 103.65136719 C-336.11678732 95.7757688 -329.04011636 88.61421449 -321.90380859 81.44042969 C-321.39506195 80.92641602 -320.88631531 80.41240234 -320.3621521 79.8828125 C-313.54762684 73.01383468 -306.50361095 66.69968326 -298.90380859 60.69042969 C-297.80404542 59.7854319 -296.70599997 58.87833607 -295.61083984 57.96777344 C-278.08213832 43.79814832 -258.95542877 31.92545797 -238.90380859 21.69042969 C-237.64334717 21.0378418 -237.64334717 21.0378418 -236.35742188 20.37207031 C-165.74524355 -15.9153154 -75.75731459 -25.0190282 0 0 Z M-257.90380859 110.69042969 C-258.44682617 111.1290332 -258.98984375 111.56763672 -259.54931641 112.01953125 C-273.61100033 123.49025767 -286.86914818 136.26198092 -297.90380859 150.69042969 C-298.90395423 151.95176419 -299.90535471 153.21210428 -300.90771484 154.47167969 C-328.75867908 189.78205426 -347.19949015 231.35525771 -354.90380859 275.69042969 C-355.08041016 276.60469727 -355.25701172 277.51896484 -355.43896484 278.4609375 C-357.52355692 290.62229878 -357.30096772 302.88740354 -357.27880859 315.19042969 C-357.27793243 316.37194611 -357.27705627 317.55346252 -357.27615356 318.77078247 C-357.2051795 347.76921428 -353.08341197 374.63838654 -345.90380859 402.69042969 C-345.69143555 403.54459473 -345.4790625 404.39875977 -345.26025391 405.27880859 C-338.02385089 434.29292363 -326.9543925 462.98004259 -313.0703125 489.45166016 C-311.68710412 492.10633175 -310.33314472 494.77521782 -308.97802734 497.44433594 C-289.19062435 536.22294098 -265.02122092 572.7801467 -239.2578125 607.83935547 C-237.11343945 610.77095238 -235.0090062 613.73064273 -232.90380859 616.69042969 C-225.00521024 627.76520101 -217.09628354 638.83035376 -208.90380859 649.69042969 C-203.00203635 657.5140935 -197.26320132 665.44982549 -191.54492188 673.40820312 C-189.37686031 676.42323429 -187.20242743 679.43363592 -185.02734375 682.44360352 C-183.94193018 683.94571796 -182.85697169 685.44816134 -181.77246094 686.95092773 C-179.10758255 690.64336854 -176.43844782 694.33256207 -173.75927734 698.01464844 C-160.49268022 716.26650685 -147.73294835 734.85886174 -135.07861328 753.5383606 C-133.81729798 755.39911663 -132.55433627 757.25875795 -131.28955078 759.11715698 C-123.18797628 771.02876695 -115.48873265 783.0982266 -108.18505859 795.51535034 C-105.25361122 800.49184255 -102.26301849 805.43296294 -99.27880859 810.37792969 C-98.38355469 811.87549805 -98.38355469 811.87549805 -97.47021484 813.40332031 C-96.61363281 814.81967773 -96.61363281 814.81967773 -95.73974609 816.26464844 C-95.24007324 817.09569092 -94.74040039 817.9267334 -94.22558594 818.78295898 C-93.0374901 820.82377783 -93.0374901 820.82377783 -90.90380859 821.69042969 C-90.42814453 820.81386719 -89.95248047 819.93730469 -89.46240234 819.03417969 C-78.16691215 798.45746897 -65.15837022 778.91960938 -52.27880859 759.31542969 C-51.36029114 757.91375549 -51.36029114 757.91375549 -50.42321777 756.48376465 C-43.096303 745.31280469 -35.58398672 734.32848605 -27.70361328 723.54052734 C-24.47556031 719.11977741 -21.38839231 714.61228294 -18.34130859 710.06542969 C-13.86987508 703.46490382 -9.2399515 697.02412458 -4.42089844 690.67382812 C-0.70047008 685.76934998 2.93669565 680.81110775 6.53369141 675.81542969 C7.07453369 675.06438965 7.61537598 674.31334961 8.17260742 673.53955078 C9.81470801 671.25716034 11.45547974 668.97381868 13.09619141 666.69042969 C19.77653267 657.4038657 26.48510452 648.14090152 33.28369141 638.94042969 C37.69072179 632.97585597 42.06297868 626.99087476 46.35449219 620.94262695 C48.55052597 617.84877943 50.7632337 614.76884534 53.00244141 611.70605469 C61.65161237 599.85968232 69.93091531 587.77847498 78.12597656 575.61425781 C79.87615456 573.01696764 81.63195832 570.42359403 83.38916016 567.83105469 C95.03659322 550.58084376 105.88986827 532.82878386 116.09619141 514.69042969 C116.59586426 513.80613281 117.09553711 512.92183594 117.61035156 512.01074219 C131.20971085 487.81904482 142.83078375 463.03469716 151.98730469 436.83398438 C152.75369136 434.66137433 153.53983539 432.49566914 154.34179688 430.3359375 C157.48328041 421.82221793 159.94752502 413.25268339 162.09619141 404.44042969 C162.3509877 403.40579086 162.3509877 403.40579086 162.6109314 402.35025024 C174.75787327 352.90572684 179.65581379 302.42348559 166.09619141 252.69042969 C165.87125 251.84738281 165.64630859 251.00433594 165.41455078 250.13574219 C154.84041943 211.18722671 135.66468856 175.08703813 109.09619141 144.69042969 C108.63438477 144.16094727 108.17257812 143.63146484 107.69677734 143.0859375 C104.57887765 139.54215647 101.36863911 136.09201048 98.09619141 132.69042969 C97.54817871 132.12050293 97.00016602 131.55057617 96.43554688 130.96337891 C89.04952361 123.32998674 81.50972748 116.19991233 73.09619141 109.69042969 C72.09201172 108.8925 71.08783203 108.09457031 70.05322266 107.27246094 C33.31892407 78.26039255 -10.6633655 59.72881426 -56.90380859 52.69042969 C-57.66806152 52.57328613 -58.43231445 52.45614258 -59.21972656 52.33544922 C-130.09647205 42.09279306 -202.81415569 66.1833484 -257.90380859 110.69042969 Z " fill="#000000" transform="translate(556.90380859375,13.3095703125)"/>
<path d="M0 0 C1.34240336 0.42852502 2.68485259 0.85690638 4.02734375 1.28515625 C29.36645632 9.73856407 50.00646925 29.06482551 61.94140625 52.76953125 C65.39049881 59.88357047 68.32872775 67.16627221 71.0546875 74.5859375 C71.78040841 76.91394016 71.78040841 76.91394016 73 78 C73.25056152 77.32646484 73.50112305 76.65292969 73.75927734 75.95898438 C80.73198667 57.40303956 87.95606218 41.24420788 102 27 C103.00740234 25.88431641 103.00740234 25.88431641 104.03515625 24.74609375 C118.13687984 9.59003568 137.07024348 1.18389922 157 -3 C158.1768335 -3.26586914 158.1768335 -3.26586914 159.37744141 -3.53710938 C162.11271428 -4.01989446 164.64573469 -4.12941631 167.421875 -4.1328125 C168.96101562 -4.13474609 168.96101562 -4.13474609 170.53125 -4.13671875 C171.5934375 -4.13285156 172.655625 -4.12898437 173.75 -4.125 C175.32007813 -4.13080078 175.32007813 -4.13080078 176.921875 -4.13671875 C186.28957588 -4.12500912 194.67469444 -3.48454892 203.5625 -0.4375 C204.33480957 -0.17428955 205.10711914 0.0889209 205.90283203 0.36010742 C232.58150008 9.76985622 253.37693483 27.3405944 265.97851562 52.73291016 C277.94602859 77.9911415 279.23325542 105.87904532 269.89453125 132.23828125 C260.25623908 157.73598093 246.68618259 180.53407042 230 202 C229.10543493 203.16403651 228.21090534 204.32810029 227.31640625 205.4921875 C221.82013002 212.6041142 216.08473928 219.37905764 210 226 C208.87060071 227.28782181 207.745415 228.57935422 206.625 229.875 C197.44730008 240.37426659 187.81038626 250.34967012 177.93774414 260.19262695 C175.80172643 262.32324634 173.67115882 264.45921223 171.54101562 266.59570312 C170.15917493 267.9768835 168.77702433 269.35775389 167.39453125 270.73828125 C166.77036819 271.36446854 166.14620514 271.99065582 165.50312805 272.63581848 C161.71519215 276.40400402 157.81062845 279.98589386 153.7635498 283.4745636 C151.35678538 285.55636818 149.02481494 287.71580081 146.6875 289.875 C142.19851943 293.96880209 137.58756524 297.85469667 132.859375 301.66796875 C130.36189167 303.70485065 127.90765228 305.78343841 125.46459961 307.88500977 C118.58093611 313.79601616 111.44248825 319.3196856 104.2109375 324.796875 C100.33304984 327.73579396 96.5047663 330.73302491 92.6875 333.75 C91.55748738 334.63436472 90.42728259 335.51848394 89.296875 336.40234375 C87.05430721 338.15857953 84.84190294 339.94626407 82.640625 341.75390625 C81.57330288 342.60725411 80.50561133 343.46014017 79.4375 344.3125 C78.50808594 345.07175781 77.57867187 345.83101562 76.62109375 346.61328125 C74 348 74 348 71.62524414 347.2956543 C68.93556031 345.96819665 66.74596394 344.48998047 64.375 342.65625 C63.51028076 341.99214111 62.64556152 341.32803223 61.75463867 340.64379883 C60.84560791 339.93634521 59.93657715 339.2288916 59 338.5 C57.58714722 337.41078247 57.58714722 337.41078247 56.14575195 336.29956055 C54.27071461 334.85349854 52.39738005 333.40522552 50.52587891 331.95458984 C48.45513389 330.35219427 46.37824522 328.75916757 44.29296875 327.17578125 C31.40869315 317.37076648 18.94967918 307.06441733 6.70898438 296.47070312 C5.00738012 295.00635112 3.29484604 293.55596205 1.578125 292.109375 C-9.83907119 282.46621057 -20.82695979 272.34309982 -31.29296875 261.671875 C-33.06510729 259.93623359 -34.91503651 258.34706346 -36.8125 256.75 C-40.8456366 253.28736603 -44.37870811 249.4187256 -47.9284668 245.47583008 C-50.57930532 242.53438792 -53.28042744 239.69140889 -56.125 236.9375 C-59.9895106 233.13595495 -63.33868238 228.99570935 -66.7265625 224.76953125 C-68.84185433 222.19265512 -71.04134302 219.75173899 -73.3125 217.3125 C-95.7267362 192.54090448 -115.08414962 161.95509447 -125 130 C-125.5811408 128.43668321 -126.16407124 126.87402858 -126.75 125.3125 C-134.08924083 102.20909099 -131.82151273 75.15800354 -121.1875 53.5625 C-107.17602618 26.77721065 -85.88918938 8.29446347 -57 -1 C-55.42412109 -1.51433594 -55.42412109 -1.51433594 -53.81640625 -2.0390625 C-36.72709329 -6.60474661 -16.65640314 -5.76775125 0 0 Z " fill="#FEFEFE" transform="translate(395,211)"/>
<path d="M0 0 C2.26648335 0.01607262 4.53117794 0.00006648 6.79760742 -0.01904297 C19.33577985 -0.03625076 31.06489979 1.87052613 42.8347168 6.39111328 C43.74479492 6.73916016 44.65487305 7.08720703 45.5925293 7.44580078 C68.97303413 16.78579357 87.69277587 31.65257484 101.77612305 52.45751953 C103.36039708 54.71518518 104.79752772 56.56219913 106.8347168 58.39111328 C107.09381836 57.67052734 107.35291992 56.94994141 107.61987305 56.20751953 C117.45464963 33.40728185 143.25867833 16.12348081 165.4597168 7.07861328 C188.08377725 -1.7719962 218.62446747 -3.77099722 241.8347168 4.39111328 C242.56110352 4.63780762 243.28749023 4.88450195 244.03588867 5.13867188 C260.40445452 10.7640714 274.1185439 18.61862669 286.8347168 30.39111328 C287.35839844 30.8709668 287.88208008 31.35082031 288.42163086 31.84521484 C304.61760215 46.83777031 315.99239815 66.12965561 321.8347168 87.39111328 C322.15311523 88.46361328 322.47151367 89.53611328 322.79956055 90.64111328 C327.56993987 109.63469732 326.56644428 131.71610302 320.8347168 150.39111328 C320.60929199 151.12845703 320.38386719 151.86580078 320.15161133 152.62548828 C313.29040469 174.23852208 302.60344758 194.71860815 289.8347168 213.39111328 C289.17342773 214.35863525 289.17342773 214.35863525 288.4987793 215.34570312 C285.68947892 219.4202528 282.79397571 223.4243964 279.8347168 227.39111328 C279.43043457 227.93429199 279.02615234 228.4774707 278.60961914 229.03710938 C270.25358761 240.20829224 261.26438018 250.81233725 251.87768555 261.12939453 C250.01653255 263.18982969 248.20300437 265.28225646 246.3972168 267.39111328 C242.87387075 271.44582242 239.06054442 275.18005467 235.2409668 278.95361328 C233.18022335 281.04111963 231.23956054 283.16280551 229.3347168 285.39111328 C223.99899943 291.60565468 218.19017556 297.3707772 212.0065918 302.73876953 C207.90135218 306.30287049 203.95977935 310.01896826 200.0222168 313.76611328 C194.62040195 318.87207566 189.14599702 323.72845176 183.33081055 328.35986328 C180.80748349 330.41327497 178.41539407 332.56299385 176.0222168 334.76611328 C171.64963244 338.74619794 167.09302389 342.40458825 162.42480469 346.02563477 C158.55913898 349.0264011 154.74564543 352.08072481 150.96264648 355.18505859 C143.12723615 361.614603 135.14615707 367.79812671 126.9777832 373.79833984 C124.63286964 375.54113047 122.31822197 377.3204444 120.00268555 379.10205078 C118.38466453 380.32402563 116.76618431 381.5453927 115.1472168 382.76611328 C114.01533936 383.65169922 114.01533936 383.65169922 112.8605957 384.55517578 C107.56572686 388.49554329 107.56572686 388.49554329 104.2097168 388.01611328 C103.4259668 387.47986328 102.6422168 386.94361328 101.8347168 386.39111328 C100.84858398 385.74400391 99.86245117 385.09689453 98.84643555 384.43017578 C97.73411857 383.6313651 96.62627883 382.82629511 95.5222168 382.01611328 C94.91901611 381.57912109 94.31581543 381.14212891 93.69433594 380.69189453 C86.34342832 375.34509529 79.07606758 369.88499816 71.8347168 364.39111328 C71.24239258 363.94203613 70.65006836 363.49295898 70.03979492 363.03027344 C62.50615417 357.30735735 55.12882648 351.4170846 47.8347168 345.39111328 C46.47587431 344.2823874 45.11645727 343.17436547 43.7565918 342.06689453 C36.3952692 336.05920865 29.14758104 330.00049672 22.1706543 323.54736328 C20.10901332 321.64431007 18.01866387 319.78931443 15.8972168 317.95361328 C11.02434424 313.71204405 6.27297784 309.33858495 1.52807617 304.95507812 C0.37678618 303.89176156 -0.77559883 302.82962966 -1.92895508 301.76855469 C-25.89301316 279.70691779 -25.89301316 279.70691779 -35.4387207 268.39892578 C-37.27660627 266.26165614 -39.18282229 264.19475205 -41.10107422 262.12963867 C-46.23079803 256.60137144 -51.1606712 250.96325855 -55.84887695 245.05078125 C-56.80393827 243.84668132 -57.76276811 242.64556742 -58.72387695 241.44628906 C-82.13498009 212.18916854 -101.2496657 180.78056057 -111.1652832 144.39111328 C-111.37805908 143.62259033 -111.59083496 142.85406738 -111.81005859 142.06225586 C-113.81238423 133.68003248 -113.60704352 125.02248898 -113.6027832 116.45361328 C-113.60318604 115.6271933 -113.60358887 114.80077332 -113.60400391 113.9493103 C-113.56887131 101.4622468 -112.88558698 90.09105874 -108.1652832 78.39111328 C-107.87057129 77.62863281 -107.57585937 76.86615234 -107.2722168 76.08056641 C-103.3503907 66.08735379 -98.6131131 57.01777764 -92.1652832 48.39111328 C-91.54008789 47.54419922 -90.91489258 46.69728516 -90.27075195 45.82470703 C-68.65524684 17.69373399 -35.77172704 -0.30076476 0 0 Z M-27.1652832 20.39111328 C-28.28418945 20.74173828 -29.4030957 21.09236328 -30.5559082 21.45361328 C-56.79001581 30.57852028 -77.04618134 50.8554085 -89.18725586 75.46240234 C-91.12585591 79.68312531 -92.70470784 83.97957954 -94.1652832 88.39111328 C-94.50301758 89.35017578 -94.84075195 90.30923828 -95.1887207 91.29736328 C-104.46791158 122.96579453 -92.40499394 157.41767293 -77.4387207 185.09960938 C-60.57643429 215.44267308 -37.69415743 243.27556541 -12.9777832 267.54345703 C-11.19239524 269.36347537 -9.55513078 271.25235235 -7.9152832 273.20361328 C-4.47474129 277.20972373 -0.63394162 280.7175011 3.28198242 284.24487305 C6.47605884 287.12663755 9.56491934 290.07429476 12.5847168 293.14111328 C15.85258186 296.45004667 19.21964805 299.5594634 22.7487793 302.58642578 C25.0849718 304.60762604 27.36436531 306.68490167 29.6472168 308.76611328 C33.94431507 312.64462055 38.37230434 316.31977296 42.8737793 319.95751953 C45.53240736 322.14264523 48.13520069 324.37511079 50.72924805 326.63549805 C57.73318239 332.72935571 64.97833669 338.42211545 72.38549805 344.01611328 C77.05727547 347.54511645 81.66352612 351.15537881 86.2722168 354.76611328 C92.33440886 359.50491469 98.43457158 364.11362929 104.8347168 368.39111328 C108.57265379 366.69949216 111.8285849 364.3997559 115.1472168 362.01611328 C115.75823242 361.578396 116.36924805 361.14067871 116.9987793 360.68969727 C123.50800833 355.9776319 129.74068508 350.93796415 135.98217773 345.88037109 C138.37123593 343.95980507 140.78751448 342.07569388 143.20654297 340.19311523 C148.96742605 335.70939771 154.6083819 331.11381067 160.15600586 326.36865234 C163.46050932 323.54282923 166.81253887 320.79334483 170.2097168 318.07861328 C175.48297767 313.79360628 180.42853619 309.19807315 185.35766602 304.52661133 C188.37329024 301.67080129 191.41479459 298.87265321 194.56616211 296.16674805 C198.8165118 292.45718307 202.82532372 288.54516467 206.80737305 284.55126953 C207.53411728 283.82548203 208.26086151 283.09969452 209.0096283 282.35191345 C210.53433976 280.82787772 212.0578083 279.30259759 213.58007812 277.77612305 C215.89105571 275.45978865 218.2073245 273.14884251 220.52416992 270.83837891 C222.014725 269.34716294 223.5049698 267.85563675 224.99487305 266.36376953 C226.01859764 265.34308128 226.01859764 265.34308128 227.06300354 264.30177307 C230.98499823 260.36088534 234.72973261 256.31613974 238.35783386 252.10267639 C240.21905858 249.94569869 242.15179617 247.8588423 244.0847168 245.76611328 C249.17683247 240.12069472 253.83141671 234.17123483 258.47045898 228.15380859 C259.77198743 226.47216304 261.08619345 224.80138954 262.4050293 223.13330078 C287.8077485 190.84624161 312.86114644 149.28402218 308.3659668 106.70751953 C305.07397226 79.37869766 291.70596392 54.43237933 270.13989258 37.02294922 C247.58357348 19.80641585 220.18162499 13.62703223 192.22875977 16.67529297 C170.99902078 19.90017289 152.11136412 30.55613774 136.8347168 45.39111328 C136.07674805 46.07560547 135.3187793 46.76009766 134.5378418 47.46533203 C119.96075413 61.06223622 112.69507805 80.12387917 105.8347168 98.39111328 C103.84860031 93.9517123 101.87636527 89.50834194 99.9753418 85.03173828 C88.25480387 57.64687229 69.89988721 35.08153986 41.8347168 23.39111328 C19.54370531 15.08946623 -4.25244911 12.91739916 -27.1652832 20.39111328 Z " fill="#030303" transform="translate(362.165283203125,190.60888671875)"/>
</svg>
